<svg xmlns="http://www.w3.org/2000/svg" xmlns:xlink="http://www.w3.org/1999/xlink" width="50" height="50" viewBox="0 0 50 50" fill="none"><rect  x="0" y="0" width="50" height="50" rx="25"    fill="#FFE187" fill-opacity="0.15"></rect><g filter="url(#filter_93_1800)"><circle cx="29.2294921875" cy="21.62890625" r="9"   fill="#FFE187" ></circle></g><path   fill="rgba(0, 0, 0, 1)"  d="M36.8078 22.305L36.8078 35.3512L36.0078 35.3512L36.8078 35.3512C36.8078 36.6767 35.7333 37.7512 34.4078 37.7512L34.4078 36.9512L34.4078 37.7512L16.4018 37.7512L16.4018 36.9512L16.4018 37.7512C15.0763 37.7512 14.0018 36.6767 14.0018 35.3512L14.0018 35.3512L14.0018 15.7283L14.8018 15.7283L14.0018 15.7283C14.0018 13.914 15.9372 12.7558 17.536 13.6132L17.536 13.6132L21.2914 15.6271L20.9133 16.3321L21.2914 15.6271L20.9133 16.3321L21.2914 15.6271Q21.3724 15.6705 21.4581 15.6373L21.4581 15.6373L26.5633 13.6604L27.1411 15.1524L22.0359 17.1294L21.747 16.3833L22.0359 17.1294Q21.6686 17.2716 21.2754 17.2474Q20.8823 17.2233 20.5352 17.0371L20.5352 17.0371L20.5352 17.0371L16.7798 15.0232L17.1579 14.3182L16.7798 15.0232C16.2469 14.7374 15.6018 15.1235 15.6018 15.7283L15.6018 15.7283L15.6018 35.3512L14.8018 35.3512L15.6018 35.3512C15.6018 35.793 15.9599 36.1512 16.4018 36.1512L16.4018 36.1512L34.4078 36.1512L34.4078 36.1512C34.8496 36.1512 35.2078 35.793 35.2078 35.3512L35.2078 35.3512L35.2078 22.305L36.8078 22.305ZM26.8522 15.2064C26.4104 15.2064 26.0522 14.8482 26.0522 14.4064C26.0522 13.9646 26.4104 13.6064 26.8522 13.6064C27.294 13.6064 27.6522 13.9646 27.6522 14.4064C27.6522 14.8482 27.294 15.2064 26.8522 15.2064ZM36.0078 23.105C35.566 23.105 35.2078 22.7468 35.2078 22.305C35.2078 21.8632 35.566 21.505 36.0078 21.505C36.4496 21.505 36.8078 21.8632 36.8078 22.305C36.8078 22.7468 36.4496 23.105 36.0078 23.105Z"></path><path   fill="rgba(0, 0, 0, 1)"  d="M31.1317 26.2288L27.2119 25.9146Q26.9596 25.8944 26.7548 25.7456Q26.55 25.5968 26.4528 25.3631L24.9426 21.7323C25.1134 22.143 25.6952 22.143 25.866 21.7323L24.3558 25.3631Q24.2586 25.5968 24.0538 25.7456Q23.849 25.8944 23.5967 25.9146L19.6769 26.2288C20.1202 26.1933 20.3 25.64 19.9622 25.3507L22.9487 27.9089Q23.1409 28.0736 23.2192 28.3143Q23.2974 28.555 23.2386 28.8012L22.3262 32.6262C22.4294 32.1936 21.9588 31.8517 21.5792 32.0835L24.9352 30.0338Q25.1512 29.9018 25.4043 29.9018Q25.6574 29.9018 25.8734 30.0338L29.2293 32.0835C28.8498 31.8517 28.3792 32.1936 28.4824 32.6262L27.5699 28.8012Q27.5112 28.555 27.5894 28.3143Q27.6677 28.0736 27.8599 27.9089L30.8464 25.3507C30.5086 25.64 30.6884 26.1933 31.1317 26.2288ZM31.2436 24.8333C32.0416 24.8973 32.3651 25.8932 31.7571 26.414L28.7707 28.9721Q28.8775 28.8807 28.9209 28.7469Q28.9644 28.6132 28.9317 28.4764L29.8442 32.3014C30.0299 33.0801 29.1828 33.6956 28.4996 33.2783L25.1437 31.2285Q25.2637 31.3018 25.4043 31.3018Q25.5449 31.3018 25.6649 31.2285L22.309 33.2783C21.6258 33.6956 20.7787 33.0801 20.9644 32.3014L21.8769 28.4764Q21.8442 28.6132 21.8877 28.7469Q21.9311 28.8807 22.0379 28.9721L19.0514 26.414C18.4435 25.8932 18.767 24.8973 19.565 24.8333L23.4848 24.5191Q23.3447 24.5303 23.2309 24.613Q23.1171 24.6956 23.0631 24.8255L24.5733 21.1947C24.8808 20.4555 25.9278 20.4555 26.2353 21.1947L27.7454 24.8255Q27.6914 24.6956 27.5777 24.613Q27.4639 24.5303 27.3237 24.5191L31.2436 24.8333Z"></path><path     fill="#000000"  d="M34.2646 18.115L35.783 15.6869C35.8505 15.579 35.8191 15.443 35.7112 15.3755C35.6033 15.308 35.4674 15.3394 35.3999 15.4473L33.8815 17.8754C33.814 17.9833 33.8454 18.1193 33.9533 18.1868C34.0029 18.2215 34.0649 18.2303 34.1219 18.2172C34.1789 18.204 34.2309 18.1689 34.2646 18.115Z"></path><path fill-rule="evenodd"  fill="rgba(0, 0, 0, 1)"  d="M34.6886 18.3801L36.2069 15.952C36.4195 15.612 36.3162 15.1642 35.9763 14.9516C35.6364 14.739 35.1885 14.8423 34.976 15.1822L33.4576 17.6103C33.2475 17.9464 33.3459 18.3879 33.6766 18.6033Q33.9292 18.7747 34.2342 18.7044Q34.5281 18.6366 34.6886 18.3801ZM33.9533 18.1868C34.0029 18.2215 34.0649 18.2303 34.1219 18.2172C34.1789 18.204 34.2309 18.1689 34.2646 18.115L35.783 15.6869C35.8505 15.579 35.8191 15.443 35.7112 15.3755C35.6033 15.308 35.4674 15.3394 35.3999 15.4473L35.3176 15.5789L33.9633 17.7446L33.8815 17.8754C33.814 17.9833 33.8454 18.1193 33.9533 18.1868Z"></path><path     fill="#000000"  d="M35.7516 15.618C35.8326 15.5257 35.8239 15.3807 35.7315 15.2997L33.6165 13.4357C33.5241 13.3548 33.3791 13.3634 33.2982 13.4558C33.2172 13.5482 33.2259 13.6932 33.3182 13.7741L35.4333 15.6381C35.4644 15.6637 35.4975 15.6804 35.5327 15.6884C35.6116 15.7063 35.6952 15.6837 35.7516 15.618Z"></path><path fill-rule="evenodd"  fill="rgba(0, 0, 0, 1)"  d="M36.0621 14.9246L36.061 14.9236L33.946 13.0596Q33.7217 12.8631 33.4221 12.8817Q33.12 12.9004 32.9221 13.1263Q32.7256 13.3506 32.7442 13.6502Q32.7629 13.9523 32.9876 14.1492L35.1094 16.0191L35.1163 16.0248Q35.2543 16.1379 35.4221 16.176Q35.6127 16.2192 35.7973 16.1625Q35.9952 16.1018 36.1277 15.9475C36.3917 15.6462 36.3628 15.1891 36.0621 14.9246ZM35.3163 15.535L33.4372 13.879L33.3182 13.7741C33.2259 13.6932 33.2172 13.5482 33.2982 13.4558C33.3791 13.3634 33.5241 13.3548 33.6165 13.4357L33.7354 13.5405L35.613 15.1952L35.7195 15.2891L35.7315 15.2997C35.8239 15.3807 35.8326 15.5257 35.7516 15.618C35.6952 15.6837 35.6116 15.7063 35.5327 15.6884Q35.48 15.6764 35.4333 15.6381L35.3163 15.535Z"></path><path     fill="#000000"  d="M35.8376 15.4819C35.8376 15.3783 35.7386 15.2969 35.6126 15.2969C32.4086 15.2969 30.7436 16.551 29.9066 17.598C29.0066 18.7338 28.8671 19.8547 28.8626 19.9028C28.8491 20.0064 28.9436 20.0952 29.0651 20.1063L29.0876 20.1063C29.2046 20.1063 29.2991 20.036 29.3126 19.9398C29.3126 19.9287 29.4476 18.8632 30.2846 17.8015C31.4096 16.3845 33.2006 15.6668 35.6126 15.6668C35.7386 15.6668 35.8376 15.5854 35.8376 15.4819Z"></path><path fill-rule="evenodd"  fill="rgba(0, 0, 0, 1)"  d="M36.0899 14.9643Q35.8863 14.7969 35.6126 14.7969Q33.3291 14.7969 31.6548 15.6045Q30.3615 16.2282 29.5147 17.2875Q28.8966 18.0675 28.5762 18.995Q28.3987 19.5087 28.3655 19.8487Q28.3285 20.1653 28.5625 20.3956Q28.7494 20.5795 29.0196 20.6042L29.0423 20.6063L29.0876 20.6063Q29.3403 20.6063 29.5366 20.4608Q29.7685 20.289 29.8078 20.0093L29.8126 19.9747L29.8126 19.9744Q29.813 19.9721 29.8134 19.9697Q29.8217 19.9192 29.8353 19.8568Q29.8801 19.6515 29.9573 19.4279Q30.2056 18.7093 30.6762 18.1124Q32.2209 16.1668 35.6126 16.1668Q35.8863 16.1668 36.0899 15.9994Q36.3376 15.7958 36.3376 15.4819Q36.3376 15.1679 36.0899 14.9643ZM28.8623 19.9398C28.8725 20.0268 28.9584 20.0965 29.0651 20.1063L29.0876 20.1063C29.2046 20.1063 29.2991 20.036 29.3126 19.9398C29.3126 19.9374 29.3191 19.884 29.3382 19.7908C29.4059 19.4604 29.6316 18.6298 30.2846 17.8015C31.375 16.4281 33.0911 15.7116 35.3919 15.6689C35.4649 15.6675 35.5385 15.6668 35.6126 15.6668C35.7386 15.6668 35.8376 15.5854 35.8376 15.4819C35.8376 15.3783 35.7386 15.2969 35.6126 15.2969C35.5373 15.2969 35.4628 15.2976 35.3892 15.2989C32.3308 15.3557 30.7239 16.5756 29.9066 17.598C29.2238 18.4597 28.9787 19.3129 28.8982 19.6954C28.8801 19.7817 28.8703 19.844 28.8658 19.8771C28.8639 19.8907 28.8629 19.8994 28.8626 19.9028C28.861 19.9154 28.8609 19.9278 28.8623 19.9398Z"></path><defs><filter id="filter_93_1800" x="17.2294921875" y="9.62890625" width="24" height="24" filterUnits="userSpaceOnUse" color-interpolation-filters="sRGB"><feGaussianBlur result="gaussian_blur_93_1800" stdDeviation="1.5"/></filter></defs></svg>